<svg width="104" height="104" viewBox="0 0 104 104" fill="none" xmlns="http://www.w3.org/2000/svg">
<path d="M91.3047 34.4173L102.719 22.9105C103.057 22.5696 103.214 22.0898 103.144 21.6153C103.074 21.1406 102.785 20.7267 102.363 20.4982L64.8875 0.186062C64.2946 -0.135078 63.5611 -0.0288437 63.0844 0.448094L51.5796 11.9529L40.0756 0.448906C39.7892 0.160469 39.4053 0 39.001 0C38.7471 0 38.4973 0.0647969 38.2738 0.186875L26.2369 6.70881C25.8794 6.90381 25.6194 7.22475 25.5036 7.61475C25.3878 8.00475 25.4305 8.41709 25.6234 8.77459C25.8916 9.26616 26.4055 9.57308 26.9641 9.57308C27.2159 9.57308 27.4678 9.50808 27.6892 9.38824L38.7248 3.40641L49.0576 13.7392L14.2813 32.536L4.03591 22.207L22.331 12.2909C22.6905 12.0979 22.9505 11.777 23.0663 11.387C23.1821 10.997 23.1394 10.5846 22.9444 10.2271C22.6783 9.73558 22.1644 9.42886 21.6058 9.42886C21.3539 9.42886 21.1041 9.49366 20.8807 9.6135L0.7981 20.499C0.377631 20.7242 0.0851313 21.1429 0.0160688 21.6162C-0.0529937 22.0872 0.105647 22.5706 0.442631 22.9101L11.8556 34.4177L0.441819 45.9243C0.104022 46.2652 -0.0536031 46.745 0.0162719 47.2195C0.08635 47.6942 0.375803 48.1081 0.797491 48.3366L12.4798 54.6685V82.1602C12.4796 82.2128 12.4823 82.2652 12.4875 82.317C12.4898 82.3392 12.494 82.3607 12.4971 82.3826C12.5009 82.4092 12.504 82.4358 12.5093 82.4621C12.5158 82.4952 12.5247 82.5272 12.5332 82.5595C12.5373 82.5744 12.5403 82.5894 12.5448 82.6042C12.5548 82.6369 12.5668 82.6688 12.5787 82.7009C12.584 82.7151 12.5885 82.7296 12.5944 82.7436C12.6062 82.7724 12.6198 82.7998 12.6332 82.8275C12.6415 82.8447 12.649 82.862 12.658 82.8789C12.6701 82.9016 12.6838 82.9233 12.6968 82.9453C12.7093 82.9662 12.7213 82.9873 12.7347 83.0078C12.7459 83.0247 12.7585 83.0407 12.7705 83.0572C12.7878 83.081 12.8048 83.1051 12.8235 83.1283C12.8339 83.1411 12.8454 83.1529 12.8562 83.1653C12.8777 83.19 12.8993 83.2148 12.9224 83.2382C12.9344 83.2502 12.9476 83.2611 12.96 83.2731C12.9832 83.2949 13.0059 83.3168 13.0305 83.3371C13.0543 83.3568 13.0794 83.3747 13.1042 83.3928C13.1188 83.4035 13.1325 83.4149 13.1475 83.4253C13.1912 83.4547 13.2365 83.4821 13.2832 83.5073L50.8481 103.813C50.9021 103.843 50.9586 103.868 51.0165 103.891C51.0291 103.896 51.0419 103.901 51.0547 103.905C51.0969 103.921 51.1398 103.935 51.1839 103.946C51.1997 103.95 51.2154 103.955 51.2312 103.958C51.2739 103.968 51.3171 103.976 51.361 103.983C51.376 103.985 51.3906 103.987 51.4057 103.989C51.463 103.996 51.5211 104 51.5802 104C51.6393 104 51.6974 103.996 51.7546 103.989C51.7697 103.987 51.7845 103.985 51.7995 103.983C51.8434 103.976 51.8867 103.968 51.9291 103.958C51.945 103.955 51.9608 103.95 51.9765 103.946C52.0203 103.934 52.0634 103.921 52.1054 103.905C52.1182 103.901 52.131 103.896 52.1436 103.891C52.2013 103.868 52.2578 103.843 52.3118 103.813L89.8767 83.5073C89.9235 83.4821 89.9688 83.4547 90.0124 83.4253C90.0275 83.4149 90.0413 83.4033 90.0557 83.3928C90.0807 83.3745 90.1059 83.3566 90.1294 83.3371C90.154 83.3168 90.1768 83.2949 90.1999 83.2731C90.2123 83.2611 90.2255 83.2504 90.2375 83.2382C90.2607 83.2148 90.2822 83.19 90.3037 83.1653C90.3145 83.1529 90.3261 83.1411 90.3364 83.1283C90.3551 83.1053 90.3722 83.0812 90.3894 83.0572C90.4014 83.0407 90.414 83.0247 90.4252 83.0078C90.4386 82.9873 90.4506 82.9664 90.4632 82.9453C90.4764 82.9233 90.49 82.9016 90.502 82.8789C90.5109 82.862 90.5184 82.8447 90.5267 82.8275C90.5401 82.7998 90.5538 82.7724 90.5655 82.7436C90.5714 82.7296 90.5759 82.7151 90.5812 82.7009C90.5932 82.669 90.6051 82.6371 90.6151 82.6042C90.6196 82.5896 90.6226 82.5746 90.6267 82.5595C90.6352 82.5272 90.6441 82.4952 90.6507 82.4621C90.6559 82.4358 90.659 82.4092 90.6628 82.3826C90.6659 82.3607 90.6703 82.3392 90.6724 82.317C90.6777 82.265 90.6803 82.2126 90.6801 82.1602V54.6685L102.362 48.3368C102.782 48.1093 103.075 47.6909 103.144 47.2197C103.213 46.7464 103.054 46.2629 102.719 45.9237L91.3047 34.4173ZM64.4349 3.40661L99.124 22.2081L88.8788 32.5366L54.103 13.7386L64.4349 3.40661ZM14.7225 52.4186L4.03652 46.6267L14.2817 36.2982L49.0578 55.0962L38.7256 65.4282L14.7355 52.4255C14.7313 52.4231 14.727 52.4209 14.7225 52.4186ZM50.0569 99.9214L15.5265 81.2561V56.3199L38.2732 68.6487C38.5018 68.7724 38.7512 68.8328 38.9986 68.8328C39.3933 68.8328 39.7833 68.6796 40.0764 68.3867L50.0569 58.4062V99.9214ZM51.5804 52.9963L17.2102 34.4177L51.5812 15.8389L85.9513 34.4175L51.5804 52.9963ZM88.4441 52.4156C88.4358 52.4199 88.4277 52.4243 88.4195 52.4288L80.8298 56.5427C80.4702 56.7357 80.2102 57.0586 80.0944 57.4486C79.9787 57.8388 80.0213 58.251 80.2143 58.6087C80.4824 59.1002 80.9963 59.4049 81.5549 59.4049C81.8068 59.4049 82.0587 59.3417 82.2801 59.2221L87.634 56.3201V81.2565L53.1038 99.9217V58.4053L63.0852 68.3867C63.3738 68.6751 63.7555 68.8336 64.1617 68.8336C64.4136 68.8336 64.6634 68.7686 64.8869 68.6487L76.9239 62.1246C77.2814 61.9316 77.5414 61.6086 77.6571 61.2186C77.7729 60.8286 77.7303 60.4183 77.5373 60.0608C77.2692 59.5672 76.7553 59.2625 76.1946 59.2625C75.9448 59.2625 75.6929 59.3255 75.4715 59.4474L64.4359 65.427L54.1032 55.0964L88.8796 36.2974L99.125 46.6263L88.4441 52.4156Z" fill="#2C277C"/>
</svg>
