<svg width="48" height="48" viewBox="0 0 48 48" fill="none" xmlns="http://www.w3.org/2000/svg">
<circle cx="24" cy="24" r="24" fill="#10B6B6"/>
<path fill-rule="evenodd" clip-rule="evenodd" d="M34.8993 32.5437C33.317 38.2456 29.6113 43.0664 24.0051 43.0664C18.401 43.0664 14.848 38.2495 13.346 32.5506C12.0472 32.3222 9.61817 31.1878 9.17392 27.9884C8.72023 24.7209 11.1588 24.4875 12.4348 24.7793L12.5306 25.5305C12.7742 17.9089 17.6704 12.726 24.0051 12.726C30.2033 12.726 35.2823 17.6881 35.7391 25.0417L35.7726 24.7793C37.0486 24.4875 39.4872 24.7209 39.0335 27.9884C38.5935 31.1569 36.207 32.3 34.8993 32.5437Z" fill="#FFF1E1"/>
<path fill-rule="evenodd" clip-rule="evenodd" d="M12.687 23.6735C13.602 17.0793 18.1994 12.726 24.005 12.726C29.8057 12.726 34.6262 17.0721 35.595 23.6571C35.6315 23.9046 35.6624 24.1552 35.6878 24.4089C35.6999 24.5295 35.7107 24.6507 35.7202 24.7726C35.7272 24.8619 35.7335 24.9516 35.739 25.0417L35.7725 24.7793C36.0829 24.7083 36.4622 24.6684 36.8518 24.6957C38.0639 24.7807 39.3767 25.5159 39.0334 27.9884C38.5934 31.1569 36.2069 32.3 34.8993 32.5437C33.3169 38.2456 29.6112 43.0664 24.005 43.0664C18.401 43.0664 14.8479 38.2495 13.3459 32.5506C12.0471 32.3222 9.61808 31.1878 9.17383 27.9884C8.82256 25.4586 10.2051 24.7476 11.4394 24.6909C11.7993 24.6743 12.1467 24.7134 12.4347 24.7793L12.5305 25.5305C12.5388 25.2715 12.5524 25.0152 12.5713 24.7619C12.5987 24.3947 12.6372 24.0337 12.6862 23.6791C12.6865 23.6773 12.6868 23.6754 12.687 23.6735ZM11.5595 23.5533C12.5315 16.4856 17.5091 11.5917 24.005 11.5917C30.4709 11.5917 35.7052 16.4587 36.7259 23.5546C37.3433 23.5703 38.0245 23.7078 38.638 24.0783C39.1994 24.4174 39.6729 24.9367 39.9523 25.6577C40.2253 26.3622 40.2887 27.1945 40.1568 28.1444C39.6981 31.4478 37.448 32.9436 35.8075 33.4781C34.0746 39.1042 30.1623 44.2006 24.005 44.2006C17.84 44.2006 14.0782 39.0964 12.4297 33.4876C10.785 32.961 8.51181 31.4675 8.05039 28.1444C7.9185 27.1945 7.98193 26.3622 8.25491 25.6577C8.53429 24.9367 9.00778 24.4174 9.56924 24.0783C10.2087 23.692 10.9218 23.559 11.5595 23.5533Z" fill="#B77D55"/>
<path d="M29.0309 32.6244L19.3361 33.9525C19.1762 33.9744 19.0665 34.1265 19.1015 34.284C19.9283 38.0027 23.1732 38.6577 24.7297 38.5108C28.1475 38.067 29.0979 34.5138 29.3438 32.9349C29.3722 32.752 29.2142 32.5993 29.0309 32.6244Z" fill="#FFB7A1"/>
<path d="M19.9487 34.8655L28.9092 33.6062L29.113 35.056L20.1525 36.3153L19.9487 34.8655Z" fill="#B77D55"/>
<path d="M19.322 34.0638L29.1675 32.6801L29.3997 34.3316L19.5541 35.7153L19.322 34.0638Z" fill="white"/>
<path fill-rule="evenodd" clip-rule="evenodd" d="M28.8894 33.073L19.5543 34.3518C19.9608 35.9877 20.8711 36.9374 21.8469 37.4743C22.8667 38.0354 23.9751 38.1532 24.6823 38.088C26.2261 37.8851 27.2161 36.9883 27.8629 35.9271C28.4617 34.9447 28.7531 33.8387 28.8894 33.073ZM28.973 32.203C29.4221 32.1415 29.8387 32.5199 29.7639 33.0003C29.6369 33.8159 29.326 35.161 28.5892 36.3698C27.846 37.5893 26.654 38.6898 24.7844 38.9326L24.777 38.9335L24.7696 38.9342C23.9199 39.0144 22.6317 38.877 21.4368 38.2196C20.2257 37.5532 19.1273 36.3604 18.6862 34.3762C18.5952 33.9672 18.8808 33.5855 19.2782 33.531L28.973 32.203Z" fill="#B77D55"/>
<path d="M13.0811 30.8267C12.7882 28.9236 11.809 22.5615 13.0883 21.5162C13.938 19.4148 14.5083 18.8167 15.6403 17.1211C26.7336 11.1285 31.8029 17.1211 31.8029 17.1211C33.4752 17.9074 35.4891 29.7393 35.2056 30.8735C35.9144 30.0228 37.6158 26.9037 38.75 24.0682C42.8839 13.7336 37.4893 9.07806 32.37 7.48021C29.4271 2.95791 21.1895 1.33915 16.7745 5.06999C13.8695 7.52509 8.37894 10.9436 7.13362 12.3006C6.03363 13.4987 12.1175 14.3839 11.2452 15.278C5.57405 21.0909 12.4092 30.7603 13.0883 30.8735L13.0811 30.8267Z" fill="#EE379A"/>
<path fill-rule="evenodd" clip-rule="evenodd" d="M11.6945 29.1722C12.2731 30.0822 12.7804 30.6867 13.0105 30.8375C13.0417 30.858 13.0678 30.8701 13.0883 30.8735L13.0811 30.8267C13.0094 30.3608 12.8965 29.6277 12.7858 28.7709C12.4441 26.1274 12.1222 22.3056 13.0883 21.5162C13.7629 19.8479 14.2614 19.1271 15.0046 18.0524C15.1976 17.7734 15.407 17.4705 15.6403 17.1211C26.7336 11.1285 31.8029 17.1211 31.8029 17.1211C33.1262 17.7433 34.6634 25.282 35.1069 28.9633C35.2239 29.9342 35.2647 30.6368 35.2056 30.8735C35.4592 30.5691 35.8399 29.9743 36.2762 29.206C37.0594 27.827 38.0216 25.8891 38.75 24.0682C42.8839 13.7336 37.4893 9.07806 32.37 7.48021C29.4271 2.95791 21.1895 1.33915 16.7745 5.06999C15.3788 6.24953 13.3863 7.65146 11.5545 8.94032C9.57358 10.3341 7.78063 11.5956 7.13362 12.3006C6.54564 12.941 8.01023 13.492 9.36785 14.0028C10.5501 14.4475 11.6512 14.8618 11.2452 15.278C7.0077 19.6214 9.75261 26.1179 11.6945 29.1722ZM11.3799 26.1749C11.1932 25.7512 11.0165 25.3057 10.8581 24.8446C9.82513 21.8374 9.67071 18.516 12.057 16.07C12.2421 15.8803 12.4366 15.5829 12.4625 15.1838C12.4881 14.7889 12.3366 14.4774 12.1943 14.2797C11.947 13.9363 11.5741 13.7217 11.3459 13.6012C10.905 13.3683 10.2937 13.1387 9.75618 12.9369C9.67053 12.9047 9.58675 12.8733 9.50584 12.8426C9.16394 12.7131 8.8649 12.5951 8.61737 12.4862C8.84355 12.3024 9.11687 12.0906 9.436 11.852C10.156 11.3138 11.0362 10.692 11.9845 10.0246C12.0652 9.96785 12.1463 9.91073 12.228 9.85331C14.042 8.57708 16.0712 7.14942 17.5066 5.93627C19.3876 4.34678 22.1802 3.83279 24.9352 4.29852C27.6955 4.76515 30.1666 6.17375 31.4194 8.09885L31.6422 8.44121L32.0321 8.56291C34.4264 9.31025 36.7561 10.7351 38.0379 13.0478C39.2986 15.3222 39.6773 18.6961 37.6969 23.6469C37.2052 24.8762 36.6003 26.1678 36.0197 27.2941C35.8462 26.173 35.6155 24.8985 35.3473 23.6319C35.0045 22.0129 34.5941 20.3759 34.1541 19.078C33.9352 18.4323 33.6974 17.8354 33.4409 17.3562C33.3126 17.1164 33.166 16.8801 32.9974 16.6741C32.8802 16.531 32.7249 16.3683 32.5261 16.2327C32.4776 16.1824 32.4171 16.1218 32.3443 16.0527C32.151 15.8692 31.8708 15.6254 31.5013 15.3587C30.7621 14.8251 29.6631 14.1982 28.1897 13.7823C25.2108 12.9415 20.8672 13.0084 15.1012 16.1232L14.8534 16.2571L14.697 16.4913C14.4786 16.8185 14.2773 17.1092 14.0879 17.3828C13.3604 18.4338 12.807 19.2333 12.1232 20.8801C11.8816 21.1615 11.7328 21.4871 11.6356 21.7709C11.5033 22.1573 11.4254 22.5897 11.3786 23.0225C11.285 23.8894 11.3008 24.9159 11.3631 25.92C11.3683 26.0048 11.374 26.0898 11.3799 26.1749ZM7.97496 12.1356C7.97481 12.1356 7.97665 12.1375 7.98093 12.1413C7.97724 12.1374 7.9751 12.1355 7.97496 12.1356Z" fill="#AC045F"/>
<path fill-rule="evenodd" clip-rule="evenodd" d="M24.0474 26.3388C24.2811 26.3621 24.4516 26.5706 24.4283 26.8043L24.1915 29.1722H24.8557C25.0906 29.1722 25.281 29.3626 25.281 29.5975C25.281 29.8324 25.0906 30.0229 24.8557 30.0229H23.7215C23.6013 30.0229 23.4867 29.972 23.4061 29.8829C23.3255 29.7938 23.2863 29.6748 23.2983 29.5552L23.5818 26.7197C23.6052 26.4859 23.8136 26.3154 24.0474 26.3388Z" fill="#B77D55"/>
<path d="M22.1911 24.2667C22.1911 26.9289 19.6456 29.0871 16.5055 29.0871C13.3654 29.0871 10.8198 26.9289 10.8198 24.2667C10.8198 21.6044 13.3654 19.4462 16.5055 19.4462C19.6456 19.4462 22.1911 21.6044 22.1911 24.2667Z" fill="#047272"/>
<path fill-rule="evenodd" clip-rule="evenodd" d="M23.0416 24.2666C23.0416 27.5249 19.9781 29.9377 16.5053 29.9377C13.0325 29.9377 9.96899 27.5249 9.96899 24.2666C9.96899 21.0083 13.0325 18.5955 16.5053 18.5955C19.9781 18.5955 23.0416 21.0083 23.0416 24.2666ZM16.5053 29.0871C19.6454 29.0871 22.1909 26.9289 22.1909 24.2666C22.1909 21.6044 19.6454 19.4462 16.5053 19.4462C13.3652 19.4462 10.8197 21.6044 10.8197 24.2666C10.8197 26.9289 13.3652 29.0871 16.5053 29.0871Z" fill="#10B6B6"/>
<path d="M18.4756 24.2666C18.4756 23.9534 18.2217 23.6995 17.9085 23.6995C17.5953 23.6995 17.3414 23.9534 17.3414 24.2666C17.3414 24.5798 17.5953 24.8337 17.9085 24.8337C18.2217 24.8337 18.4756 24.5798 18.4756 24.2666Z" fill="#10B6B6"/>
<path d="M16.7744 23.416C16.7744 23.1028 16.5205 22.8489 16.2073 22.8489C15.8941 22.8489 15.6402 23.1028 15.6402 23.416V25.4009C15.6402 25.7141 15.8941 25.968 16.2073 25.968C16.5205 25.968 16.7744 25.7141 16.7744 25.4009V23.416Z" fill="#10B6B6"/>
<path d="M14.7896 21.7146C14.7896 21.4014 14.5356 21.1475 14.2224 21.1475C13.9092 21.1475 13.6553 21.4014 13.6553 21.7146V26.8186C13.6553 27.1318 13.9092 27.3857 14.2224 27.3857C14.5356 27.3857 14.7896 27.1318 14.7896 26.8186V21.7146Z" fill="#10B6B6"/>
<path d="M25.8772 24.2667C25.8772 26.9289 28.4228 29.0871 31.5629 29.0871C34.703 29.0871 37.2485 26.9289 37.2485 24.2667C37.2485 21.6044 34.703 19.4462 31.5629 19.4462C28.4228 19.4462 25.8772 21.6044 25.8772 24.2667Z" fill="#047272"/>
<path fill-rule="evenodd" clip-rule="evenodd" d="M25.0265 24.2666C25.0265 27.5249 28.09 29.9377 31.5628 29.9377C35.0357 29.9377 38.0991 27.5249 38.0991 24.2666C38.0991 21.0083 35.0357 18.5955 31.5628 18.5955C28.09 18.5955 25.0265 21.0083 25.0265 24.2666ZM31.5628 29.0871C28.4227 29.0871 25.8772 26.9289 25.8772 24.2666C25.8772 21.6044 28.4227 19.4462 31.5628 19.4462C34.7029 19.4462 37.2485 21.6044 37.2485 24.2666C37.2485 26.9289 34.7029 29.0871 31.5628 29.0871Z" fill="#10B6B6"/>
<path d="M29.5925 24.2666C29.5925 23.9534 29.8464 23.6995 30.1596 23.6995C30.4728 23.6995 30.7267 23.9534 30.7267 24.2666C30.7267 24.5798 30.4728 24.8337 30.1596 24.8337C29.8464 24.8337 29.5925 24.5798 29.5925 24.2666Z" fill="#10B6B6"/>
<path d="M31.2939 23.416C31.2939 23.1028 31.5478 22.8489 31.8611 22.8489C32.1743 22.8489 32.4282 23.1028 32.4282 23.416V25.4009C32.4282 25.7141 32.1743 25.968 31.8611 25.968C31.5478 25.968 31.2939 25.7141 31.2939 25.4009V23.416Z" fill="#10B6B6"/>
<path d="M33.2788 21.7146C33.2788 21.4014 33.5327 21.1475 33.8459 21.1475C34.1591 21.1475 34.413 21.4014 34.413 21.7146V26.8186C34.413 27.1318 34.1591 27.3857 33.8459 27.3857C33.5327 27.3857 33.2788 27.1318 33.2788 26.8186V21.7146Z" fill="#10B6B6"/>
</svg>
